<?xml version="1.0" encoding="UTF-8" standalone="no"?>
<svg width="155px" height="251px" viewBox="0 0 155 251" version="1.1" xmlns="http://www.w3.org/2000/svg" xmlns:xlink="http://www.w3.org/1999/xlink">
    <!-- Generator: Sketch 3.6.1 (26313) - http://www.bohemiancoding.com/sketch -->
    <title>Slice 1</title>
    <desc>Created with Sketch.</desc>
    <defs></defs>
    <g id="Page-1" stroke="none" stroke-width="1" fill="none" fill-rule="evenodd">
        <path d="M66.074082,87.7172438 L35.0458142,141.45978 L76.9114524,227.297059 C80.7837438,235.236433 77.4861417,244.811963 69.5421515,248.686505 C61.5999075,252.560197 52.0198539,249.259224 48.1500429,241.324936 L4.10670641,151.022714 C0.22226478,146.036779 -0.483265413,138.997951 2.87078718,133.188562 L44.2830492,61.4604199 C48.4150589,54.3035691 57.2432624,51.5483507 64.6317177,54.8412532 L64.7710538,54.8012992 C57.0562824,49.4803531 52,40.5806556 52,30.5 C52,14.2075999 65.2075999,1 81.5,1 C97.7924001,1 111,14.2075999 111,30.5 C111,34.6730738 110.133505,38.643767 108.57062,42.2419758 L133.628023,35.056881 C142.11936,32.6220293 150.976926,37.5322687 153.413146,46.0283792 C155.848831,54.522622 150.940326,63.3822398 142.448419,65.8172553 L66.074082,87.7172438 Z" id="Combined-Shape" stroke="#979797" fill="#D8D8D8"></path>
    </g>
</svg>